<svg width="17" height="16" viewBox="0 0 17 16" fill="none" xmlns="http://www.w3.org/2000/svg">
<path d="M14 7V4" stroke="black" stroke-linecap="round" stroke-linejoin="round"/>
<path d="M15.5 5.5H12.5" stroke="black" stroke-linecap="round" stroke-linejoin="round"/>
<path d="M11 1.5V3.5" stroke="black" stroke-linecap="round" stroke-linejoin="round"/>
<path d="M12 2.5H10" stroke="black" stroke-linecap="round" stroke-linejoin="round"/>
<path d="M14.0436 9.53749C13.0619 9.81277 12.0247 9.82179 11.0384 9.56363C10.0521 9.30546 9.15223 8.78943 8.43131 8.06851C7.71039 7.34759 7.19436 6.44777 6.93619 5.46146C6.67803 4.47516 6.68706 3.43791 6.96233 2.45624C5.9945 2.72562 5.11413 3.24388 4.40892 3.95938C3.70371 4.67489 3.19827 5.56268 2.94295 6.53432C2.68763 7.50595 2.69133 8.52753 2.95369 9.49729C3.21605 10.4671 3.72791 11.3512 4.43829 12.0615C5.14866 12.7719 6.03276 13.2838 7.00253 13.5461C7.97229 13.8085 8.99387 13.8122 9.9655 13.5569C10.9371 13.3015 11.8249 12.7961 12.5404 12.0909C13.2559 11.3857 13.7742 10.5053 14.0436 9.53749Z" stroke="black" stroke-linecap="round" stroke-linejoin="round"/>
</svg>
